<svg xmlns="http://www.w3.org/2000/svg" width="1113.696" height="1076.205" viewBox="0 0 1113.696 1076.205">
  <defs>
    <style>
      .cls-1 {
        fill: none;
        opacity: 0.19;
      }

      .cls-2, .cls-3 {
        stroke: none;
      }

      .cls-3 {
        fill: #a53939;
      }
    </style>
  </defs>
  <g id="Group_22" data-name="Group 22" transform="translate(-2081.728 2539.147) rotate(-89)">
    <g id="Polygon_9" data-name="Polygon 9" class="cls-1" transform="translate(1989.437 2245.222) rotate(30)">
      <path class="cls-2" d="M195.84,0,391.68,260.4H0Z"/>
      <path class="cls-3" d="M 195.8400726318359 8.318695068359375 L 10.01651000976562 255.4027404785156 L 381.66357421875 255.4027404785156 L 195.8400726318359 8.318695068359375 M 195.8400726318359 0 L 391.6801147460938 260.4027404785156 L -3.0517578125e-05 260.4027404785156 L 195.8400726318359 0 Z"/>
    </g>
    <g id="Polygon_10" data-name="Polygon 10" class="cls-1" transform="translate(1775.885 2128.849) rotate(14)">
      <path class="cls-2" d="M195.84,0,391.68,260.4H0Z"/>
      <path class="cls-3" d="M 195.8400726318359 8.318695068359375 L 10.01651000976562 255.4027404785156 L 381.66357421875 255.4027404785156 L 195.8400726318359 8.318695068359375 M 195.8400726318359 0 L 391.6801147460938 260.4027404785156 L -3.0517578125e-05 260.4027404785156 L 195.8400726318359 0 Z"/>
    </g>
    <g id="Polygon_11" data-name="Polygon 11" class="cls-1" transform="translate(1500.238 2123.884) rotate(-11)">
      <path class="cls-2" d="M195.84,0,391.68,260.4H0Z"/>
      <path class="cls-3" d="M 195.8400726318359 8.318695068359375 L 10.01651000976562 255.4027404785156 L 381.66357421875 255.4027404785156 L 195.8400726318359 8.318695068359375 M 195.8400726318359 0 L 391.6801147460938 260.4027404785156 L -3.0517578125e-05 260.4027404785156 L 195.8400726318359 0 Z"/>
    </g>
    <g id="Polygon_7" data-name="Polygon 7" class="cls-1" transform="matrix(0.545, 0.839, -0.839, 0.545, 2238.885, 2350.87)">
      <path class="cls-2" d="M195.84,0,391.68,260.4H0Z"/>
      <path class="cls-3" d="M 195.8400726318359 8.318695068359375 L 10.01651000976562 255.4027404785156 L 381.66357421875 255.4027404785156 L 195.8400726318359 8.318695068359375 M 195.8400726318359 0 L 391.6801147460938 260.4027404785156 L -3.0517578125e-05 260.4027404785156 L 195.8400726318359 0 Z"/>
    </g>
    <g id="Polygon_8" data-name="Polygon 8" class="cls-1" transform="matrix(-0.777, 0.629, -0.629, -0.777, 2577.129, 2788.4)">
      <path class="cls-2" d="M195.84,0,391.68,260.4H0Z"/>
      <path class="cls-3" d="M 195.8400726318359 8.318695068359375 L 10.01651000976562 255.4027404785156 L 381.66357421875 255.4027404785156 L 195.8400726318359 8.318695068359375 M 195.8400726318359 0 L 391.6801147460938 260.4027404785156 L -3.0517578125e-05 260.4027404785156 L 195.8400726318359 0 Z"/>
    </g>
    <g id="Path_59" data-name="Path 59" class="cls-1" transform="matrix(-0.978, 0.208, -0.208, -0.978, 2593.224, 3075.899)">
      <path class="cls-2" d="M195.84,0,391.68,260.4H0L158.606,49.509Z"/>
      <path class="cls-3" d="M 195.8400726318359 8.318695068359375 L 10.01651000976562 255.4027404785156 L 381.66357421875 255.4027404785156 L 195.8400726318359 8.318695068359375 M 195.8400726318359 0 L 391.6801147460938 260.4027404785156 L -3.0517578125e-05 260.4027404785156 L 195.8400726318359 0 Z"/>
    </g>
  </g>
</svg>
